<svg width="147" height="147" viewBox="0 0 147 147" fill="none" xmlns="http://www.w3.org/2000/svg">
<circle cx="73.5" cy="73.5" r="73.5" fill="#E6E9ED"/>
<path fill-rule="evenodd" clip-rule="evenodd" d="M146.865 78C146.954 76.5115 147 75.0111 147 73.5C147 32.9071 114.093 0 73.5 0C32.9071 0 0 32.9071 0 73.5C0 75.0111 0.0456001 76.5115 0.135499 78H146.865Z" fill="#ED5564"/>
<path fill-rule="evenodd" clip-rule="evenodd" d="M146.256 84C146.746 80.5707 147 77.065 147 73.5C147 72.9988 146.995 72.4988 146.985 72H0.0149994C0.00502014 72.4988 0 72.9988 0 73.5C0 77.065 0.253815 80.5707 0.744339 84H146.256Z" fill="#434A54"/>
<circle cx="74" cy="78" r="24" fill="#434A54"/>
<circle cx="73.5" cy="78.5" r="13.5" fill="#E6E9ED"/>
</svg>
